<svg width="1058" height="805" viewBox="0 0 1058 805" fill="none" xmlns="http://www.w3.org/2000/svg">
<g clip-path="url(#clip0_2_7)">
<path d="M500.822 26.602C514.303 6.63702 543.697 6.63701 557.178 26.602L1039.03 740.224C1054.27 762.805 1038.09 793.25 1010.85 793.25H47.1519C19.9054 793.25 3.72682 762.805 18.9738 740.224L500.822 26.602Z" fill="#1EA992" stroke="#FEEFC3" stroke-width="20"/>
<g filter="url(#filter0_d_2_7)">
<path d="M478.54 543.678C478.54 547.094 479.231 550.347 480.614 553.438C481.996 556.529 483.826 559.213 486.104 561.49C488.381 563.849 490.984 565.679 493.912 566.98C496.84 568.363 499.89 569.054 503.062 569.054C505.908 569.054 508.267 568.281 510.138 566.736C512.008 565.191 513.147 562.466 513.554 558.562L513.92 558.196C516.766 558.928 518.759 560.067 519.898 561.612C521.118 563.157 521.728 564.825 521.728 566.614C521.728 568.81 521.077 570.315 519.776 571.128C518.556 572.023 517.376 572.673 516.238 573.08C516.238 574.544 515.872 575.683 515.14 576.496C514.408 577.391 513.513 578.041 512.456 578.448C511.48 578.936 510.382 579.221 509.162 579.302C508.023 579.465 507.006 579.546 506.112 579.546C502.696 579.546 499.564 578.936 496.718 577.716C493.952 576.577 491.35 575.154 488.91 573.446C486.47 571.738 484.152 569.827 481.956 567.712C479.76 565.679 477.523 563.808 475.246 562.1C473.05 560.392 470.732 558.928 468.292 557.708C465.933 556.569 463.33 556 460.484 556H456.702V550.876C457.759 550.876 458.938 550.835 460.24 550.754C461.541 550.591 462.72 550.185 463.778 549.534C464.835 548.883 465.73 547.867 466.462 546.484C467.194 545.02 467.56 542.987 467.56 540.384V468.892C467.56 466.371 466.584 464.459 464.632 463.158C462.761 461.775 460.118 461.084 456.702 461.084C456.702 459.701 457.19 458.522 458.166 457.546C459.142 456.489 460.85 455.96 463.29 455.96C465.404 455.96 467.275 456.326 468.902 457.058C470.61 457.79 471.992 458.685 473.05 459.742C474.107 458.685 475.449 457.79 477.076 457.058C478.784 456.326 480.695 455.96 482.81 455.96C485.25 455.96 486.958 456.489 487.934 457.546C488.91 458.522 489.398 459.701 489.398 461.084C486.063 461.084 483.42 461.775 481.468 463.158C479.516 464.459 478.54 466.371 478.54 468.892V543.678ZM574.226 512.812C571.867 504.191 569.915 497.074 568.37 491.462C566.906 485.85 565.726 481.336 564.832 477.92C563.937 474.504 563.246 471.983 562.758 470.356C562.351 468.729 562.026 467.591 561.782 466.94L547.02 516.96C548.402 517.123 549.704 517.245 550.924 517.326C552.144 517.407 553.282 517.448 554.34 517.448C556.942 517.448 559.87 517.163 563.124 516.594C566.377 516.025 570.078 514.764 574.226 512.812ZM595.454 543.922C596.104 546.281 597.69 548.029 600.212 549.168C602.733 550.307 605.824 550.876 609.484 550.876V556C608.508 556 607.288 555.959 605.824 555.878C604.441 555.715 602.896 555.553 601.188 555.39C599.561 555.227 597.853 555.105 596.064 555.024C594.356 554.861 592.729 554.78 591.184 554.78C589.557 554.78 587.768 554.861 585.816 555.024C583.864 555.105 581.912 555.227 579.96 555.39C578.089 555.553 576.3 555.715 574.592 555.878C572.965 555.959 571.664 556 570.688 556V550.876C571.908 550.876 573.209 550.835 574.592 550.754C575.974 550.673 577.235 550.469 578.374 550.144C579.594 549.737 580.57 549.209 581.302 548.558C582.115 547.826 582.522 546.85 582.522 545.63C582.522 545.305 582.44 544.817 582.278 544.166C582.196 543.515 581.912 542.295 581.424 540.506C580.936 538.717 580.244 536.195 579.35 532.942C578.536 529.607 577.398 525.134 575.934 519.522C571.054 521.23 566.743 522.369 563.002 522.938C559.342 523.507 555.966 523.792 552.876 523.792C551.737 523.792 550.517 523.751 549.216 523.67C547.914 523.589 546.572 523.467 545.19 523.304L540.798 539.164C540.391 540.465 540.066 541.604 539.822 542.58C539.578 543.475 539.496 544.247 539.578 544.898C539.578 546.362 539.944 547.501 540.676 548.314C541.489 549.046 542.506 549.615 543.726 550.022C544.946 550.429 546.288 550.673 547.752 550.754C549.297 550.835 550.802 550.876 552.266 550.876V556C551.29 556 550.07 555.959 548.606 555.878C547.142 555.715 545.515 555.553 543.726 555.39C542.018 555.227 540.269 555.105 538.48 555.024C536.69 554.861 535.023 554.78 533.478 554.78C530.387 554.78 527.337 554.983 524.328 555.39C521.4 555.797 519 556 517.13 556V550.876C520.79 550.876 523.758 550.307 526.036 549.168C528.394 548.029 529.94 546.281 530.672 543.922L537.626 521.84C532.99 520.457 529.045 518.302 525.792 515.374C522.62 512.365 521.034 508.461 521.034 503.662C521.034 502.361 521.156 501.425 521.4 500.856C521.725 500.287 522.172 499.758 522.742 499.27C521.44 497.725 520.79 495.813 520.79 493.536C520.79 492.153 521.034 490.811 521.522 489.51C522.091 488.127 522.823 486.948 523.718 485.972C524.694 484.915 525.832 484.101 527.134 483.532C528.435 482.881 529.899 482.556 531.526 482.556C532.339 482.556 533.071 482.678 533.722 482.922C534.454 483.085 535.104 483.369 535.674 483.776C536.324 484.101 536.975 484.589 537.626 485.24C538.358 485.809 539.171 486.46 540.066 487.192C536.975 488.493 534.738 490.445 533.356 493.048C531.973 495.651 531.282 498.375 531.282 501.222C531.282 505.126 532.095 508.176 533.722 510.372C535.348 512.568 537.341 514.195 539.7 515.252L558 460.108C562.148 460.108 566.377 459.661 570.688 458.766C574.998 457.871 579.106 456.936 583.01 455.96L585.45 460.23C583.742 460.555 582.318 460.921 581.18 461.328C580.122 461.653 579.268 462.101 578.618 462.67C578.048 463.158 577.642 463.809 577.398 464.622C577.235 465.354 577.154 466.289 577.154 467.428C577.154 468.241 577.194 469.258 577.276 470.478C577.438 471.698 577.723 473.447 578.13 475.724C578.618 477.92 579.268 480.767 580.082 484.264C580.895 487.761 581.952 492.235 583.254 497.684C584.636 503.052 586.304 509.518 588.256 517.082C590.289 524.646 592.688 533.593 595.454 543.922ZM152.623 674.93C156.12 674.93 159.252 674.605 162.017 673.954C164.864 673.222 167.304 672.246 169.337 671.026C169.744 671.433 170.11 672.002 170.435 672.734C170.842 673.466 171.045 674.279 171.045 675.174C171.045 677.289 169.866 679.078 167.507 680.542C165.148 681.925 161.448 682.616 156.405 682.616C153.802 682.616 151.24 682.494 148.719 682.25C146.198 681.925 143.676 681.518 141.155 681.03V714.458C141.155 716.41 141.521 717.955 142.253 719.094C143.066 720.233 144.002 721.087 145.059 721.656C146.198 722.144 147.377 722.469 148.597 722.632C149.898 722.795 151.037 722.876 152.013 722.876V728C151.037 728 149.817 727.959 148.353 727.878C146.889 727.715 145.384 727.553 143.839 727.39C142.294 727.227 140.789 727.105 139.325 727.024C137.861 726.861 136.641 726.78 135.665 726.78C134.689 726.78 133.469 726.861 132.005 727.024C130.541 727.105 129.036 727.227 127.491 727.39C125.946 727.553 124.441 727.715 122.977 727.878C121.513 727.959 120.293 728 119.317 728V722.876C120.374 722.876 121.554 722.795 122.855 722.632C124.156 722.469 125.336 722.144 126.393 721.656C127.45 721.087 128.345 720.233 129.077 719.094C129.809 717.955 130.175 716.41 130.175 714.458V668.586C130.175 665.577 130.094 663.096 129.931 661.144C129.85 659.111 129.524 657.565 128.955 656.508C128.386 655.369 127.572 654.597 126.515 654.19C125.458 653.702 123.994 653.458 122.123 653.458V649.188C124.156 649.188 125.905 649.066 127.369 648.822C128.914 648.578 130.297 648.212 131.517 647.724C132.737 647.236 133.835 646.667 134.811 646.016C135.868 645.365 136.966 644.674 138.105 643.942H141.155V674.564C143.026 674.727 144.937 674.849 146.889 674.93C148.841 674.93 150.752 674.93 152.623 674.93ZM129.687 635.036C127.41 635.036 125.214 635.402 123.099 636.134C120.984 636.866 119.114 638.045 117.487 639.672C115.86 641.217 114.559 643.332 113.583 646.016C112.607 648.619 112.119 651.791 112.119 655.532C112.119 657.565 112.241 659.395 112.485 661.022C112.729 662.567 112.932 664.235 113.095 666.024C109.354 666.024 106.548 665.17 104.677 663.462C102.806 661.754 101.871 659.599 101.871 656.996C101.871 655.125 102.278 653.661 103.091 652.604C103.986 651.465 105.124 650.571 106.507 649.92C105.612 649.432 105.002 648.415 104.677 646.87C104.352 645.325 104.189 644.023 104.189 642.966C104.189 640.689 104.758 638.615 105.897 636.744C107.036 634.873 108.581 633.287 110.533 631.986C112.566 630.685 114.925 629.709 117.609 629.058C120.293 628.326 123.221 627.96 126.393 627.96C129.321 627.96 132.208 628.245 135.055 628.814C137.902 629.302 140.667 629.912 143.351 630.644C146.035 631.295 148.597 631.905 151.037 632.474C153.558 632.962 155.998 633.206 158.357 633.206C161.204 633.206 163.928 632.677 166.531 631.62C169.215 630.481 171.94 628.407 174.705 625.398C175.681 625.642 176.698 626.374 177.755 627.594C178.894 628.814 179.463 630.359 179.463 632.23C179.463 633.857 178.853 635.361 177.633 636.744C176.413 638.045 174.258 638.696 171.167 638.696C171.167 639.265 171.045 639.957 170.801 640.77C170.557 641.502 170.11 642.234 169.459 642.966C168.89 643.617 168.076 644.186 167.019 644.674C166.043 645.162 164.782 645.406 163.237 645.406C160.878 645.406 158.357 644.877 155.673 643.82C153.07 642.681 150.346 641.502 147.499 640.282C144.734 638.981 141.846 637.801 138.837 636.744C135.828 635.605 132.778 635.036 129.687 635.036ZM218.062 715.678C218.062 719.094 218.754 722.347 220.136 725.438C221.519 728.529 223.349 731.213 225.626 733.49C227.904 735.849 230.506 737.679 233.434 738.98C236.362 740.363 239.412 741.054 242.584 741.054C245.431 741.054 247.79 740.281 249.66 738.736C251.531 737.191 252.67 734.466 253.076 730.562L253.442 730.196C256.289 730.928 258.282 732.067 259.42 733.612C260.64 735.157 261.25 736.825 261.25 738.614C261.25 740.81 260.6 742.315 259.298 743.128C258.078 744.023 256.899 744.673 255.76 745.08C255.76 746.544 255.394 747.683 254.662 748.496C253.93 749.391 253.036 750.041 251.978 750.448C251.002 750.936 249.904 751.221 248.684 751.302C247.546 751.465 246.529 751.546 245.634 751.546C242.218 751.546 239.087 750.936 236.24 749.716C233.475 748.577 230.872 747.154 228.432 745.446C225.992 743.738 223.674 741.827 221.478 739.712C219.282 737.679 217.046 735.808 214.768 734.1C212.572 732.392 210.254 730.928 207.814 729.708C205.456 728.569 202.853 728 200.006 728H196.224V722.876C197.282 722.876 198.461 722.835 199.762 722.754C201.064 722.591 202.243 722.185 203.3 721.534C204.358 720.883 205.252 719.867 205.984 718.484C206.716 717.02 207.082 714.987 207.082 712.384V640.892C207.082 638.371 206.106 636.459 204.154 635.158C202.284 633.775 199.64 633.084 196.224 633.084C196.224 631.701 196.712 630.522 197.688 629.546C198.664 628.489 200.372 627.96 202.812 627.96C204.927 627.96 206.798 628.326 208.424 629.058C210.132 629.79 211.515 630.685 212.572 631.742C213.63 630.685 214.972 629.79 216.598 629.058C218.306 628.326 220.218 627.96 222.332 627.96C224.772 627.96 226.48 628.489 227.456 629.546C228.432 630.522 228.92 631.701 228.92 633.084C225.586 633.084 222.942 633.775 220.99 635.158C219.038 636.459 218.062 638.371 218.062 640.892V715.678ZM306.295 729.708C302.717 729.708 299.057 729.464 295.315 728.976C291.655 728.569 288.321 727.797 285.311 726.658C282.302 725.438 279.821 723.811 277.869 721.778C275.999 719.663 275.063 716.979 275.063 713.726C272.298 713.726 270.061 712.669 268.353 710.554C266.727 708.439 265.425 705.674 264.449 702.258C263.555 698.761 262.945 694.857 262.619 690.546C262.375 686.235 262.253 681.884 262.253 677.492C262.253 670.091 263.229 663.34 265.181 657.24C267.215 651.14 270.183 645.935 274.087 641.624C278.073 637.232 282.953 633.857 288.727 631.498C294.502 629.139 301.171 627.96 308.735 627.96C310.525 627.96 312.843 628.082 315.689 628.326C318.536 628.57 321.301 629.139 323.985 630.034C326.751 630.847 329.109 632.067 331.061 633.694C333.013 635.321 333.989 637.557 333.989 640.404C336.999 640.404 339.479 641.583 341.431 643.942C343.465 646.219 345.091 649.147 346.311 652.726C347.531 656.223 348.385 660.046 348.873 664.194C349.361 668.342 349.605 672.287 349.605 676.028C349.605 684.731 348.467 692.417 346.189 699.086C343.993 705.755 340.943 711.367 337.039 715.922C333.135 720.477 328.54 723.933 323.253 726.292C317.967 728.569 312.314 729.708 306.295 729.708ZM306.051 723.73C311.419 723.73 316.055 722.51 319.959 720.07C323.863 717.549 327.035 714.214 329.475 710.066C331.997 705.837 333.827 700.957 334.965 695.426C336.185 689.895 336.795 684.08 336.795 677.98C336.795 671.88 336.185 666.187 334.965 660.9C333.827 655.613 331.997 651.018 329.475 647.114C326.954 643.129 323.741 639.997 319.837 637.72C316.015 635.443 311.379 634.304 305.929 634.304C300.561 634.304 295.925 635.443 292.021 637.72C288.117 639.916 284.905 642.966 282.383 646.87C279.862 650.774 277.991 655.41 276.771 660.778C275.633 666.065 275.063 671.758 275.063 677.858C275.063 683.958 275.633 689.814 276.771 695.426C277.991 700.957 279.862 705.837 282.383 710.066C284.905 714.214 288.117 717.549 292.021 720.07C295.925 722.51 300.602 723.73 306.051 723.73ZM410.609 684.324V680.176C414.594 679.769 418.214 679.119 421.467 678.224C424.802 677.248 427.648 675.865 430.007 674.076C432.366 672.287 434.196 669.969 435.497 667.122C436.798 664.275 437.449 660.737 437.449 656.508C437.449 648.619 435.09 642.925 430.373 639.428C425.737 635.849 418.946 634.06 409.999 634.06C403.411 634.06 398.002 634.914 393.773 636.622C389.544 638.249 386.168 640.526 383.647 643.454C381.126 646.382 379.377 649.798 378.401 653.702C377.425 657.525 376.937 661.632 376.937 666.024C373.114 666.024 370.39 665.292 368.763 663.828C367.136 662.364 366.323 660.371 366.323 657.85C366.323 655.491 366.892 653.58 368.031 652.116C369.251 650.652 370.634 649.92 372.179 649.92C371.528 649.269 371.122 648.415 370.959 647.358C370.796 646.219 370.715 645.325 370.715 644.674C370.715 641.909 371.772 639.509 373.887 637.476C376.083 635.361 378.97 633.613 382.549 632.23C386.128 630.766 390.235 629.709 394.871 629.058C399.507 628.326 404.346 627.96 409.389 627.96C410.934 627.96 413.008 628.041 415.611 628.204C418.214 628.367 420.979 628.733 423.907 629.302C426.835 629.871 429.804 630.766 432.813 631.986C435.822 633.125 438.547 634.751 440.987 636.866C443.427 638.981 445.42 641.624 446.965 644.796C448.51 647.968 449.283 651.791 449.283 656.264C449.283 663.096 447.209 668.83 443.061 673.466C438.994 678.102 432.366 681.396 423.175 683.348L446.843 713.116C449.69 716.776 452.496 719.338 455.261 720.802C458.026 722.185 461.076 722.876 464.411 722.876V728C462.052 728.081 459.816 728.122 457.701 728.122C455.668 728.203 454.122 728.244 453.065 728.244C451.032 728.244 449.324 728.122 447.941 727.878C446.64 727.553 445.42 727.065 444.281 726.414C443.224 725.682 442.126 724.706 440.987 723.486C439.93 722.185 438.669 720.558 437.205 718.606L410.609 684.324ZM405.851 714.458C405.851 716.41 406.217 717.955 406.949 719.094C407.762 720.233 408.698 721.087 409.755 721.656C410.894 722.144 412.073 722.469 413.293 722.632C414.594 722.795 415.733 722.876 416.709 722.876V728C415.733 728 414.513 727.959 413.049 727.878C411.585 727.715 410.08 727.553 408.535 727.39C406.99 727.227 405.485 727.105 404.021 727.024C402.557 726.861 401.337 726.78 400.361 726.78C399.385 726.78 398.165 726.861 396.701 727.024C395.237 727.105 393.732 727.227 392.187 727.39C390.642 727.553 389.137 727.715 387.673 727.878C386.209 727.959 384.989 728 384.013 728V722.876C385.07 722.876 386.25 722.795 387.551 722.632C388.852 722.469 390.032 722.144 391.089 721.656C392.146 721.087 393.041 720.233 393.773 719.094C394.505 717.955 394.871 716.41 394.871 714.458V666.146C394.871 663.137 394.79 660.656 394.627 658.704C394.546 656.671 394.22 655.125 393.651 654.068C393.082 652.929 392.268 652.157 391.211 651.75C390.154 651.262 388.69 651.018 386.819 651.018V646.748C388.852 646.748 390.601 646.626 392.065 646.382C393.61 646.138 394.993 645.772 396.213 645.284C397.433 644.796 398.531 644.227 399.507 643.576C400.564 642.925 401.662 642.234 402.801 641.502H405.851V714.458ZM522.278 729.708C518.699 729.708 515.039 729.464 511.298 728.976C507.638 728.569 504.303 727.797 501.294 726.658C498.285 725.438 495.804 723.811 493.852 721.778C491.981 719.663 491.046 716.979 491.046 713.726C488.281 713.726 486.044 712.669 484.336 710.554C482.709 708.439 481.408 705.674 480.432 702.258C479.537 698.761 478.927 694.857 478.602 690.546C478.358 686.235 478.236 681.884 478.236 677.492C478.236 670.091 479.212 663.34 481.164 657.24C483.197 651.14 486.166 645.935 490.07 641.624C494.055 637.232 498.935 633.857 504.71 631.498C510.485 629.139 517.154 627.96 524.718 627.96C526.507 627.96 528.825 628.082 531.672 628.326C534.519 628.57 537.284 629.139 539.968 630.034C542.733 630.847 545.092 632.067 547.044 633.694C548.996 635.321 549.972 637.557 549.972 640.404C552.981 640.404 555.462 641.583 557.414 643.942C559.447 646.219 561.074 649.147 562.294 652.726C563.514 656.223 564.368 660.046 564.856 664.194C565.344 668.342 565.588 672.287 565.588 676.028C565.588 684.731 564.449 692.417 562.172 699.086C559.976 705.755 556.926 711.367 553.022 715.922C549.118 720.477 544.523 723.933 539.236 726.292C533.949 728.569 528.297 729.708 522.278 729.708ZM522.034 723.73C527.402 723.73 532.038 722.51 535.942 720.07C539.846 717.549 543.018 714.214 545.458 710.066C547.979 705.837 549.809 700.957 550.948 695.426C552.168 689.895 552.778 684.08 552.778 677.98C552.778 671.88 552.168 666.187 550.948 660.9C549.809 655.613 547.979 651.018 545.458 647.114C542.937 643.129 539.724 639.997 535.82 637.72C531.997 635.443 527.361 634.304 521.912 634.304C516.544 634.304 511.908 635.443 508.004 637.72C504.1 639.916 500.887 642.966 498.366 646.87C495.845 650.774 493.974 655.41 492.754 660.778C491.615 666.065 491.046 671.758 491.046 677.858C491.046 683.958 491.615 689.814 492.754 695.426C493.974 700.957 495.845 705.837 498.366 710.066C500.887 714.214 504.1 717.549 508.004 720.07C511.908 722.51 516.585 723.73 522.034 723.73ZM621.834 659.802C621.834 647.358 627.853 641.136 639.89 641.136V642.234C638.426 642.234 637.206 642.478 636.23 642.966C635.335 643.454 634.644 644.145 634.156 645.04C633.668 645.853 633.302 646.789 633.058 647.846C632.895 648.903 632.814 650.042 632.814 651.262V714.458C632.814 716.41 633.18 717.955 633.912 719.094C634.725 720.233 635.661 721.087 636.718 721.656C637.857 722.144 639.036 722.469 640.256 722.632C641.557 722.795 642.696 722.876 643.672 722.876V728C642.696 728 641.476 727.959 640.012 727.878C638.548 727.715 637.043 727.553 635.498 727.39C633.953 727.227 632.448 727.105 630.984 727.024C629.52 726.861 628.3 726.78 627.324 726.78C626.348 726.78 625.128 726.861 623.664 727.024C622.2 727.105 620.695 727.227 619.15 727.39C617.605 727.553 616.1 727.715 614.636 727.878C613.172 727.959 611.952 728 610.976 728V722.876C612.033 722.876 613.213 722.795 614.514 722.632C615.815 722.469 616.995 722.144 618.052 721.656C619.109 721.087 620.004 720.233 620.736 719.094C621.468 717.955 621.834 716.41 621.834 714.458V659.802ZM604.388 664.682C602.192 665.658 600.159 666.146 598.288 666.146C595.441 666.146 593.286 665.211 591.822 663.34C590.439 661.388 589.748 659.192 589.748 656.752C587.877 656.752 586.332 655.979 585.112 654.434C583.973 652.889 583.404 650.774 583.404 648.09C583.404 644.43 584.502 641.339 586.698 638.818C588.975 636.297 591.863 634.223 595.36 632.596C598.857 630.969 602.721 629.79 606.95 629.058C611.261 628.326 615.449 627.96 619.516 627.96C623.501 627.96 626.958 628.245 629.886 628.814C632.814 629.383 635.498 630.034 637.938 630.766C640.459 631.417 642.859 632.027 645.136 632.596C647.413 633.165 649.975 633.45 652.822 633.45C654.367 633.45 655.994 633.328 657.702 633.084C659.41 632.84 661.077 632.433 662.704 631.864C664.331 631.213 665.795 630.359 667.096 629.302C668.479 628.245 669.617 626.903 670.512 625.276C671.651 626.089 672.667 627.106 673.562 628.326C674.538 629.465 675.026 630.847 675.026 632.474C675.026 633.125 674.904 633.816 674.66 634.548C674.497 635.28 674.091 635.971 673.44 636.622C672.871 637.191 672.057 637.679 671 638.086C669.943 638.493 668.56 638.696 666.852 638.696C666.852 641.055 666.12 642.803 664.656 643.942C663.273 645.081 661.362 645.65 658.922 645.65C656.319 645.65 653.635 645.121 650.87 644.064C648.186 642.925 645.258 641.705 642.086 640.404C638.914 639.103 635.417 637.923 631.594 636.866C627.771 635.727 623.501 635.158 618.784 635.158C615.612 635.158 612.603 635.483 609.756 636.134C606.991 636.785 604.51 637.801 602.314 639.184C600.199 640.567 598.532 642.397 597.312 644.674C596.092 646.951 595.482 649.717 595.482 652.97C595.482 656.955 596.336 659.802 598.044 661.51C599.752 663.137 601.867 663.95 604.388 663.95V664.682ZM711.379 630.522C714.632 630.522 718.089 630.481 721.749 630.4C725.49 630.237 728.988 630.075 732.241 629.912C735.494 629.749 738.26 629.627 740.537 629.546C742.896 629.383 744.36 629.302 744.929 629.302C746.881 629.302 747.857 630.359 747.857 632.474C747.857 633.369 747.735 635.239 747.491 638.086C747.247 640.851 747.125 644.227 747.125 648.212H742.245C742.245 646.504 742.123 644.918 741.879 643.454C741.716 641.909 741.31 640.567 740.659 639.428C740.09 638.289 739.236 637.395 738.097 636.744C736.958 636.012 735.413 635.646 733.461 635.646H711.379V674.32C714.063 674.727 716.747 675.052 719.431 675.296C722.196 675.459 724.962 675.54 727.727 675.54C730.574 675.54 733.42 675.255 736.267 674.686C739.114 674.035 741.554 672.815 743.587 671.026C743.994 671.433 744.36 672.002 744.685 672.734C745.092 673.466 745.295 674.279 745.295 675.174C745.295 677.289 744.116 679.078 741.757 680.542C739.398 681.925 735.698 682.616 730.655 682.616C727.32 682.616 724.067 682.372 720.895 681.884C717.723 681.396 714.551 680.745 711.379 679.932V714.458C711.379 717.711 712.07 720.477 713.453 722.754C714.917 724.95 716.666 726.739 718.699 728.122C720.732 729.586 722.888 730.603 725.165 731.172C727.442 731.823 729.435 732.148 731.143 732.148C733.502 732.148 735.413 731.823 736.877 731.172C738.422 730.603 739.642 729.83 740.537 728.854C741.432 727.878 742.042 726.78 742.367 725.56C742.774 724.259 742.977 722.917 742.977 721.534C742.977 719.419 742.611 717.711 741.879 716.41C741.228 715.027 740.171 713.767 738.707 712.628V712.14C740.171 711.896 741.472 711.774 742.611 711.774C744.4 711.774 745.824 712.099 746.881 712.75C748.02 713.319 748.874 714.092 749.443 715.068C750.094 716.044 750.5 717.142 750.663 718.362C750.907 719.582 751.029 720.802 751.029 722.022C752.005 722.022 752.778 722.51 753.347 723.486C753.916 724.381 754.201 725.641 754.201 727.268C754.201 728.732 753.876 730.115 753.225 731.416C752.574 732.799 751.517 733.978 750.053 734.954C748.67 736.011 746.8 736.825 744.441 737.394C742.164 738.045 739.358 738.37 736.023 738.37C731.143 738.37 726.792 737.76 722.969 736.54C719.228 735.32 715.73 733.978 712.477 732.514C709.224 731.131 706.052 729.83 702.961 728.61C699.952 727.39 696.739 726.78 693.323 726.78H689.541V721.656C690.598 721.656 691.778 721.615 693.079 721.534C694.38 721.371 695.56 720.965 696.617 720.314C697.674 719.663 698.569 718.647 699.301 717.264C700.033 715.8 700.399 713.767 700.399 711.164V642.844C700.399 640.892 700.033 639.347 699.301 638.208C698.569 637.069 697.674 636.256 696.617 635.768C695.56 635.199 694.38 634.833 693.079 634.67C691.778 634.507 690.598 634.426 689.541 634.426V629.302C690.517 629.302 692.022 629.383 694.055 629.546C696.088 629.627 698.203 629.749 700.399 629.912C702.676 630.075 704.832 630.237 706.865 630.4C708.898 630.481 710.403 630.522 711.379 630.522ZM818.337 627.96C819.719 627.96 821.468 628.001 823.583 628.082C825.779 628.163 827.853 628.407 829.805 628.814C831.838 629.221 833.587 629.871 835.051 630.766C836.515 631.661 837.247 632.962 837.247 634.67C839.036 634.67 840.744 634.914 842.371 635.402C843.997 635.89 845.421 636.703 846.641 637.842C847.942 638.981 848.959 640.485 849.691 642.356C850.504 644.227 850.911 646.545 850.911 649.31C850.911 654.515 849.569 658.379 846.885 660.9C844.282 663.421 840.947 664.682 836.881 664.682C835.986 664.682 834.969 664.641 833.831 664.56C832.692 664.397 831.675 664.235 830.781 664.072V663.218C832.651 662.567 834.156 661.388 835.295 659.68C836.515 657.891 837.125 655.288 837.125 651.872C837.125 646.179 835.376 641.787 831.879 638.696C828.463 635.605 823.949 634.06 818.337 634.06C813.782 634.06 809.512 635.117 805.527 637.232C801.541 639.347 798.044 642.397 795.035 646.382C792.025 650.367 789.626 655.247 787.837 661.022C786.129 666.797 785.275 673.385 785.275 680.786C785.275 687.862 786.088 694.084 787.715 699.452C789.341 704.739 791.578 709.171 794.425 712.75C797.271 716.329 800.647 719.053 804.551 720.924C808.536 722.713 812.847 723.608 817.483 723.608C821.549 723.608 824.925 722.957 827.609 721.656C830.293 720.273 832.407 718.443 833.953 716.166C835.579 713.807 836.718 711.083 837.369 707.992C838.019 704.82 838.426 701.445 838.589 697.866C839.646 697.866 840.825 698.029 842.127 698.354C843.509 698.679 844.77 699.249 845.909 700.062C847.047 700.875 848.023 701.973 848.837 703.356C849.65 704.657 850.057 706.325 850.057 708.358C850.057 709.497 849.894 710.676 849.569 711.896C849.325 713.116 848.837 714.214 848.105 715.19C847.373 716.166 846.397 716.979 845.177 717.63C844.038 718.199 842.615 718.484 840.907 718.484C840.907 720.599 840.175 722.388 838.711 723.852C837.247 725.235 835.335 726.373 832.977 727.268C830.618 728.081 827.975 728.691 825.047 729.098C822.2 729.505 819.353 729.708 816.507 729.708C810.325 729.708 804.591 728.813 799.305 727.024C794.018 725.153 789.423 722.266 785.519 718.362C781.615 714.458 778.565 709.415 776.369 703.234C774.173 696.971 773.075 689.448 773.075 680.664C773.075 671.636 774.213 663.828 776.491 657.24C778.849 650.571 782.062 645.081 786.129 640.77C790.277 636.459 795.075 633.247 800.525 631.132C806.055 629.017 811.993 627.96 818.337 627.96ZM923.811 684.812C921.452 676.191 919.5 669.074 917.955 663.462C916.491 657.85 915.311 653.336 914.417 649.92C913.522 646.504 912.831 643.983 912.343 642.356C911.936 640.729 911.611 639.591 911.367 638.94L896.605 688.96C897.987 689.123 899.289 689.245 900.509 689.326C901.729 689.407 902.867 689.448 903.925 689.448C906.527 689.448 909.455 689.163 912.709 688.594C915.962 688.025 919.663 686.764 923.811 684.812ZM945.039 715.922C945.689 718.281 947.275 720.029 949.797 721.168C952.318 722.307 955.409 722.876 959.069 722.876V728C958.093 728 956.873 727.959 955.409 727.878C954.026 727.715 952.481 727.553 950.773 727.39C949.146 727.227 947.438 727.105 945.649 727.024C943.941 726.861 942.314 726.78 940.769 726.78C939.142 726.78 937.353 726.861 935.401 727.024C933.449 727.105 931.497 727.227 929.545 727.39C927.674 727.553 925.885 727.715 924.177 727.878C922.55 727.959 921.249 728 920.273 728V722.876C921.493 722.876 922.794 722.835 924.177 722.754C925.559 722.673 926.82 722.469 927.959 722.144C929.179 721.737 930.155 721.209 930.887 720.558C931.7 719.826 932.107 718.85 932.107 717.63C932.107 717.305 932.025 716.817 931.863 716.166C931.781 715.515 931.497 714.295 931.009 712.506C930.521 710.717 929.829 708.195 928.935 704.942C928.121 701.607 926.983 697.134 925.519 691.522C920.639 693.23 916.328 694.369 912.587 694.938C908.927 695.507 905.551 695.792 902.461 695.792C901.322 695.792 900.102 695.751 898.801 695.67C897.499 695.589 896.157 695.467 894.775 695.304L890.383 711.164C889.976 712.465 889.651 713.604 889.407 714.58C889.163 715.475 889.081 716.247 889.163 716.898C889.163 718.362 889.529 719.501 890.261 720.314C891.074 721.046 892.091 721.615 893.311 722.022C894.531 722.429 895.873 722.673 897.337 722.754C898.882 722.835 900.387 722.876 901.851 722.876V728C900.875 728 899.655 727.959 898.191 727.878C896.727 727.715 895.1 727.553 893.311 727.39C891.603 727.227 889.854 727.105 888.065 727.024C886.275 726.861 884.608 726.78 883.063 726.78C879.972 726.78 876.922 726.983 873.913 727.39C870.985 727.797 868.585 728 866.715 728V722.876C870.375 722.876 873.343 722.307 875.621 721.168C877.979 720.029 879.525 718.281 880.257 715.922L887.211 693.84C882.575 692.457 878.63 690.302 875.377 687.374C872.205 684.365 870.619 680.461 870.619 675.662C870.619 674.361 870.741 673.425 870.985 672.856C871.31 672.287 871.757 671.758 872.327 671.27C871.025 669.725 870.375 667.813 870.375 665.536C870.375 664.153 870.619 662.811 871.107 661.51C871.676 660.127 872.408 658.948 873.303 657.972C874.279 656.915 875.417 656.101 876.719 655.532C878.02 654.881 879.484 654.556 881.111 654.556C881.924 654.556 882.656 654.678 883.307 654.922C884.039 655.085 884.689 655.369 885.259 655.776C885.909 656.101 886.56 656.589 887.211 657.24C887.943 657.809 888.756 658.46 889.651 659.192C886.56 660.493 884.323 662.445 882.941 665.048C881.558 667.651 880.867 670.375 880.867 673.222C880.867 677.126 881.68 680.176 883.307 682.372C884.933 684.568 886.926 686.195 889.285 687.252L907.585 632.108C911.733 632.108 915.962 631.661 920.273 630.766C924.583 629.871 928.691 628.936 932.595 627.96L935.035 632.23C933.327 632.555 931.903 632.921 930.765 633.328C929.707 633.653 928.853 634.101 928.203 634.67C927.633 635.158 927.227 635.809 926.983 636.622C926.82 637.354 926.739 638.289 926.739 639.428C926.739 640.241 926.779 641.258 926.861 642.478C927.023 643.698 927.308 645.447 927.715 647.724C928.203 649.92 928.853 652.767 929.667 656.264C930.48 659.761 931.537 664.235 932.839 669.684C934.221 675.052 935.889 681.518 937.841 689.082C939.874 696.646 942.273 705.593 945.039 715.922Z" fill="#F5F5F5"/>
</g>
<path d="M385.218 358.38C386.708 358.38 388.043 358.241 389.222 357.964C390.435 357.652 391.475 357.236 392.342 356.716C392.515 356.889 392.671 357.132 392.81 357.444C392.983 357.756 393.07 358.103 393.07 358.484C393.07 359.385 392.567 360.148 391.562 360.772C390.556 361.361 388.979 361.656 386.83 361.656C385.72 361.656 384.628 361.604 383.554 361.5C382.479 361.361 381.404 361.188 380.33 360.98V375.228C380.33 376.06 380.486 376.719 380.798 377.204C381.144 377.689 381.543 378.053 381.994 378.296C382.479 378.504 382.982 378.643 383.502 378.712C384.056 378.781 384.542 378.816 384.958 378.816V381C384.542 381 384.022 380.983 383.398 380.948C382.774 380.879 382.132 380.809 381.474 380.74C380.815 380.671 380.174 380.619 379.55 380.584C378.926 380.515 378.406 380.48 377.99 380.48C377.574 380.48 377.054 380.515 376.43 380.584C375.806 380.619 375.164 380.671 374.506 380.74C373.847 380.809 373.206 380.879 372.582 380.948C371.958 380.983 371.438 381 371.022 381V378.816C371.472 378.816 371.975 378.781 372.53 378.712C373.084 378.643 373.587 378.504 374.038 378.296C374.488 378.053 374.87 377.689 375.182 377.204C375.494 376.719 375.65 376.06 375.65 375.228V355.676C375.65 354.393 375.615 353.336 375.546 352.504C375.511 351.637 375.372 350.979 375.13 350.528C374.887 350.043 374.54 349.713 374.09 349.54C373.639 349.332 373.015 349.228 372.218 349.228V347.408C373.084 347.408 373.83 347.356 374.454 347.252C375.112 347.148 375.702 346.992 376.222 346.784C376.742 346.576 377.21 346.333 377.626 346.056C378.076 345.779 378.544 345.484 379.03 345.172H380.33V358.224C381.127 358.293 381.942 358.345 382.774 358.38C383.606 358.38 384.42 358.38 385.218 358.38ZM375.442 341.376C374.471 341.376 373.535 341.532 372.634 341.844C371.732 342.156 370.935 342.659 370.242 343.352C369.548 344.011 368.994 344.912 368.578 346.056C368.162 347.165 367.954 348.517 367.954 350.112C367.954 350.979 368.006 351.759 368.11 352.452C368.214 353.111 368.3 353.821 368.37 354.584C366.775 354.584 365.579 354.22 364.782 353.492C363.984 352.764 363.586 351.845 363.586 350.736C363.586 349.939 363.759 349.315 364.106 348.864C364.487 348.379 364.972 347.997 365.562 347.72C365.18 347.512 364.92 347.079 364.782 346.42C364.643 345.761 364.574 345.207 364.574 344.756C364.574 343.785 364.816 342.901 365.302 342.104C365.787 341.307 366.446 340.631 367.278 340.076C368.144 339.521 369.15 339.105 370.294 338.828C371.438 338.516 372.686 338.36 374.038 338.36C375.286 338.36 376.516 338.481 377.73 338.724C378.943 338.932 380.122 339.192 381.266 339.504C382.41 339.781 383.502 340.041 384.542 340.284C385.616 340.492 386.656 340.596 387.662 340.596C388.875 340.596 390.036 340.371 391.146 339.92C392.29 339.435 393.451 338.551 394.63 337.268C395.046 337.372 395.479 337.684 395.93 338.204C396.415 338.724 396.658 339.383 396.658 340.18C396.658 340.873 396.398 341.515 395.878 342.104C395.358 342.659 394.439 342.936 393.122 342.936C393.122 343.179 393.07 343.473 392.966 343.82C392.862 344.132 392.671 344.444 392.394 344.756C392.151 345.033 391.804 345.276 391.354 345.484C390.938 345.692 390.4 345.796 389.742 345.796C388.736 345.796 387.662 345.571 386.518 345.12C385.408 344.635 384.247 344.132 383.034 343.612C381.855 343.057 380.624 342.555 379.342 342.104C378.059 341.619 376.759 341.376 375.442 341.376ZM410.978 375.852C410.978 376.545 411.082 377.117 411.29 377.568C411.533 378.019 411.81 378.383 412.122 378.66C412.469 378.937 412.85 379.145 413.266 379.284C413.717 379.388 414.15 379.44 414.566 379.44V381C414.15 381 413.682 380.983 413.162 380.948C412.677 380.879 412.157 380.809 411.602 380.74C411.047 380.671 410.51 380.619 409.99 380.584C409.505 380.515 409.054 380.48 408.638 380.48C408.222 380.48 407.754 380.515 407.234 380.584C406.749 380.619 406.229 380.671 405.674 380.74C405.119 380.809 404.582 380.879 404.062 380.948C403.577 380.983 403.126 381 402.71 381V379.44C403.646 379.44 404.478 379.18 405.206 378.66C405.934 378.14 406.298 377.204 406.298 375.852V348.916C406.298 347.633 406.263 346.576 406.194 345.744C406.159 344.877 406.021 344.219 405.778 343.768C405.535 343.283 405.189 342.953 404.738 342.78C404.287 342.572 403.663 342.468 402.866 342.468V341.168C403.733 341.168 404.478 341.116 405.102 341.012C405.761 340.908 406.35 340.752 406.87 340.544C407.39 340.336 407.858 340.093 408.274 339.816C408.725 339.539 409.193 339.244 409.678 338.932H410.978V375.852ZM434.444 381.728C432.711 381.728 431.099 381.433 429.608 380.844C428.152 380.22 426.87 379.353 425.76 378.244C424.651 377.135 423.784 375.8 423.16 374.24C422.536 372.68 422.224 370.929 422.224 368.988C422.224 367.012 422.536 365.261 423.16 363.736C423.784 362.211 424.651 360.928 425.76 359.888C426.87 358.813 428.152 358.016 429.608 357.496C431.099 356.941 432.711 356.664 434.444 356.664C436.143 356.664 437.738 356.941 439.228 357.496C440.719 358.016 442.019 358.813 443.128 359.888C444.238 360.928 445.104 362.211 445.728 363.736C446.352 365.261 446.664 367.012 446.664 368.988C446.664 370.964 446.352 372.732 445.728 374.292C445.104 375.852 444.238 377.187 443.128 378.296C442.019 379.405 440.719 380.255 439.228 380.844C437.738 381.433 436.143 381.728 434.444 381.728ZM434.496 379.336C435.779 379.336 436.871 379.059 437.772 378.504C438.674 377.949 439.419 377.204 440.008 376.268C440.598 375.297 441.031 374.188 441.308 372.94C441.586 371.692 441.724 370.375 441.724 368.988C441.724 367.636 441.586 366.353 441.308 365.14C441.031 363.927 440.598 362.887 440.008 362.02C439.419 361.119 438.656 360.408 437.72 359.888C436.819 359.368 435.727 359.108 434.444 359.108C433.162 359.108 432.052 359.368 431.116 359.888C430.215 360.373 429.47 361.067 428.88 361.968C428.291 362.835 427.858 363.875 427.58 365.088C427.303 366.301 427.164 367.601 427.164 368.988C427.164 370.375 427.303 371.692 427.58 372.94C427.858 374.188 428.291 375.297 428.88 376.268C429.504 377.204 430.267 377.949 431.168 378.504C432.104 379.059 433.214 379.336 434.496 379.336ZM462.876 375.852C462.876 376.545 462.98 377.117 463.188 377.568C463.43 378.019 463.708 378.383 464.02 378.66C464.366 378.937 464.748 379.145 465.164 379.284C465.614 379.388 466.048 379.44 466.464 379.44V381C466.048 381 465.58 380.983 465.06 380.948C464.574 380.879 464.054 380.809 463.5 380.74C462.945 380.671 462.408 380.619 461.888 380.584C461.402 380.515 460.952 380.48 460.536 380.48C460.12 380.48 459.652 380.515 459.132 380.584C458.646 380.619 458.126 380.671 457.572 380.74C457.017 380.809 456.48 380.879 455.96 380.948C455.474 380.983 455.024 381 454.608 381V379.44C455.544 379.44 456.376 379.18 457.104 378.66C457.832 378.14 458.196 377.204 458.196 375.852V367.168C458.196 365.885 458.161 364.828 458.092 363.996C458.057 363.129 457.918 362.471 457.676 362.02C457.433 361.535 457.086 361.205 456.636 361.032C456.185 360.824 455.561 360.72 454.764 360.72V359.42C455.63 359.42 456.376 359.368 457 359.264C457.658 359.16 458.248 359.004 458.768 358.796C459.288 358.588 459.756 358.345 460.172 358.068C460.622 357.791 461.09 357.496 461.576 357.184H462.876V362.592C463.708 360.547 464.696 359.056 465.84 358.12C467.018 357.149 468.214 356.664 469.428 356.664C470.19 356.664 470.884 356.785 471.508 357.028C472.132 357.271 472.444 357.687 472.444 358.276C473.137 358.276 473.674 358.501 474.056 358.952C474.472 359.403 474.68 360.027 474.68 360.824C474.68 361.725 474.368 362.523 473.744 363.216C473.12 363.875 472.08 364.343 470.624 364.62C470.762 364.1 470.832 363.58 470.832 363.06C470.832 361.812 470.537 360.893 469.948 360.304C469.393 359.715 468.769 359.42 468.076 359.42C467.521 359.42 466.932 359.715 466.308 360.304C465.718 360.859 465.164 361.639 464.644 362.644C464.124 363.649 463.69 364.828 463.344 366.18C463.032 367.497 462.876 368.936 462.876 370.496V375.852ZM483.249 348.968C483.249 347.928 483.613 347.061 484.341 346.368C485.069 345.64 485.936 345.276 486.941 345.276C487.947 345.276 488.796 345.64 489.489 346.368C490.217 347.061 490.581 347.928 490.581 348.968C490.581 350.008 490.217 350.892 489.489 351.62C488.796 352.313 487.947 352.66 486.941 352.66C485.936 352.66 485.069 352.313 484.341 351.62C483.613 350.892 483.249 350.008 483.249 348.968ZM489.125 375.852C489.125 376.545 489.229 377.117 489.437 377.568C489.68 378.019 489.957 378.383 490.269 378.66C490.616 378.937 490.997 379.145 491.413 379.284C491.864 379.388 492.297 379.44 492.713 379.44V381C492.297 381 491.829 380.983 491.309 380.948C490.824 380.879 490.304 380.809 489.749 380.74C489.195 380.671 488.657 380.619 488.137 380.584C487.652 380.515 487.201 380.48 486.785 380.48C486.369 380.48 485.901 380.515 485.381 380.584C484.896 380.619 484.376 380.671 483.821 380.74C483.267 380.809 482.729 380.879 482.209 380.948C481.724 380.983 481.273 381 480.857 381V379.44C481.793 379.44 482.625 379.18 483.353 378.66C484.081 378.14 484.445 377.204 484.445 375.852V366.908C484.445 365.625 484.411 364.568 484.341 363.736C484.307 362.869 484.168 362.211 483.925 361.76C483.683 361.275 483.336 360.945 482.885 360.772C482.435 360.564 481.811 360.46 481.013 360.46V358.9C481.88 358.9 482.608 358.848 483.197 358.744C483.821 358.64 484.376 358.484 484.861 358.276C485.347 358.068 485.797 357.825 486.213 357.548C486.629 357.271 487.08 356.976 487.565 356.664H489.125V375.852ZM517.736 361.5C517.736 362.817 517.285 363.788 516.384 364.412C515.517 365.001 514.529 365.296 513.42 365.296L513.264 365.036C513.507 364.932 513.767 364.672 514.044 364.256C514.321 363.84 514.46 363.285 514.46 362.592C514.46 361.413 514.027 360.547 513.16 359.992C512.293 359.403 511.149 359.108 509.728 359.108C509.381 359.108 508.965 359.143 508.48 359.212C507.995 359.281 507.527 359.437 507.076 359.68C506.625 359.923 506.227 360.269 505.88 360.72C505.568 361.171 505.412 361.76 505.412 362.488C505.412 363.459 505.741 364.221 506.4 364.776C507.059 365.331 507.873 365.799 508.844 366.18C509.849 366.561 510.924 366.925 512.068 367.272C513.212 367.619 514.269 368.069 515.24 368.624C516.245 369.179 517.077 369.907 517.736 370.808C518.395 371.709 518.724 372.905 518.724 374.396C518.724 376.823 517.805 378.66 515.968 379.908C514.165 381.121 511.773 381.728 508.792 381.728C508.584 381.728 508.255 381.711 507.804 381.676C507.353 381.676 506.903 381.641 506.452 381.572C506.036 381.503 505.655 381.399 505.308 381.26C504.961 381.121 504.788 380.913 504.788 380.636C503.332 380.636 502.24 380.255 501.512 379.492C500.784 378.729 500.42 377.759 500.42 376.58C500.42 375.297 500.784 374.379 501.512 373.824C502.275 373.269 503.141 372.957 504.112 372.888L504.216 373.044C503.939 373.356 503.765 373.772 503.696 374.292C503.627 374.777 503.592 375.159 503.592 375.436C503.592 376.199 503.765 376.84 504.112 377.36C504.459 377.845 504.892 378.244 505.412 378.556C505.932 378.833 506.504 379.041 507.128 379.18C507.787 379.284 508.428 379.336 509.052 379.336C509.191 379.336 509.503 379.319 509.988 379.284C510.508 379.249 511.028 379.128 511.548 378.92C512.068 378.677 512.536 378.313 512.952 377.828C513.368 377.308 513.576 376.597 513.576 375.696C513.576 374.621 513.264 373.772 512.64 373.148C512.016 372.524 511.219 372.004 510.248 371.588C509.312 371.172 508.289 370.791 507.18 370.444C506.071 370.063 505.031 369.612 504.06 369.092C503.124 368.572 502.344 367.896 501.72 367.064C501.096 366.197 500.784 365.053 500.784 363.632C500.784 362.211 501.096 361.049 501.72 360.148C502.344 359.247 503.124 358.536 504.06 358.016C504.996 357.496 505.984 357.149 507.024 356.976C508.099 356.768 509.069 356.664 509.936 356.664C511.045 356.664 511.895 356.768 512.484 356.976C513.073 357.184 513.368 357.479 513.368 357.86C513.888 357.86 514.408 357.929 514.928 358.068C515.448 358.172 515.916 358.363 516.332 358.64C516.748 358.917 517.077 359.299 517.32 359.784C517.597 360.235 517.736 360.807 517.736 361.5ZM582.656 375.332C582.656 377.135 582.742 378.591 582.916 379.7C583.124 380.809 583.384 381.659 583.696 382.248C584.008 382.872 584.354 383.288 584.736 383.496C585.152 383.704 585.568 383.808 585.984 383.808C586.469 383.808 586.868 383.756 587.18 383.652C587.526 383.548 587.838 383.409 588.116 383.236L588.636 383.704C588.254 384.605 587.734 385.264 587.076 385.68C586.452 386.131 585.741 386.356 584.944 386.356C583.938 386.356 583.089 386.148 582.396 385.732C581.737 385.316 581.408 384.761 581.408 384.068C579.986 384.068 579.05 383.461 578.6 382.248C578.184 381.035 577.976 379.249 577.976 376.892V359.628H574.544V357.184H574.856C575.792 357.184 576.589 356.976 577.248 356.56C577.941 356.109 578.53 355.537 579.016 354.844C579.536 354.151 579.969 353.371 580.316 352.504C580.697 351.603 581.044 350.701 581.356 349.8H582.656V357.184C583.904 357.149 584.926 357.063 585.724 356.924C586.556 356.751 587.162 356.473 587.544 356.092C588.341 356.231 588.861 356.525 589.104 356.976C589.346 357.392 589.468 357.756 589.468 358.068C589.468 358.484 589.329 358.848 589.052 359.16C588.809 359.437 588.462 359.663 588.012 359.836C587.596 360.009 587.11 360.131 586.556 360.2C586.001 360.269 585.446 360.304 584.892 360.304C584.129 360.304 583.384 360.252 582.656 360.148V375.332ZM607.486 379.388C608.006 379.388 608.526 379.336 609.046 379.232C609.566 379.093 610.051 378.868 610.502 378.556C610.987 378.209 611.42 377.741 611.802 377.152C612.218 376.528 612.582 375.713 612.894 374.708C613.691 374.708 614.35 374.899 614.87 375.28C615.39 375.661 615.65 376.251 615.65 377.048C615.65 377.776 615.407 378.435 614.922 379.024C614.471 379.613 613.847 380.116 613.05 380.532C612.287 380.913 611.386 381.208 610.346 381.416C609.34 381.624 608.283 381.728 607.174 381.728C605.267 381.728 603.586 381.433 602.13 380.844C600.674 380.22 599.46 379.371 598.49 378.296C597.519 377.187 596.774 375.852 596.254 374.292C595.768 372.732 595.526 371.016 595.526 369.144C595.526 365.261 596.548 362.211 598.594 359.992C600.639 357.773 603.551 356.664 607.33 356.664C607.78 356.664 608.231 356.681 608.682 356.716C609.132 356.751 609.548 356.837 609.93 356.976C610.311 357.08 610.623 357.253 610.866 357.496C611.108 357.704 611.23 357.981 611.23 358.328C611.75 358.328 612.27 358.432 612.79 358.64C613.344 358.848 613.847 359.16 614.298 359.576C614.783 359.992 615.164 360.529 615.442 361.188C615.754 361.812 615.91 362.575 615.91 363.476C615.91 364.759 615.598 365.816 614.974 366.648C614.35 367.48 613.552 368.156 612.582 368.676C611.646 369.161 610.606 369.508 609.462 369.716C608.352 369.889 607.295 369.976 606.29 369.976C605.146 369.976 604.071 369.889 603.066 369.716C602.095 369.543 601.263 369.335 600.57 369.092V369.3C600.57 370.756 600.691 372.108 600.934 373.356C601.176 374.604 601.558 375.679 602.078 376.58C602.632 377.447 603.343 378.14 604.21 378.66C605.111 379.145 606.203 379.388 607.486 379.388ZM606.914 359.108C605.042 359.108 603.603 359.784 602.598 361.136C601.592 362.488 600.951 364.36 600.674 366.752C601.263 367.133 602.06 367.393 603.066 367.532C604.106 367.636 605.094 367.688 606.03 367.688C607.902 367.688 609.202 367.393 609.93 366.804C610.692 366.215 611.074 365.192 611.074 363.736C611.074 362.003 610.675 360.807 609.878 360.148C609.08 359.455 608.092 359.108 606.914 359.108ZM632.164 375.852C632.164 376.545 632.268 377.117 632.476 377.568C632.719 378.019 632.996 378.383 633.308 378.66C633.655 378.937 634.036 379.145 634.452 379.284C634.903 379.388 635.336 379.44 635.752 379.44V381C635.336 381 634.868 380.983 634.348 380.948C633.863 380.879 633.343 380.809 632.788 380.74C632.233 380.671 631.696 380.619 631.176 380.584C630.691 380.515 630.24 380.48 629.824 380.48C629.408 380.48 628.94 380.515 628.42 380.584C627.935 380.619 627.415 380.671 626.86 380.74C626.305 380.809 625.768 380.879 625.248 380.948C624.763 380.983 624.312 381 623.896 381V379.44C624.832 379.44 625.664 379.18 626.392 378.66C627.12 378.14 627.484 377.204 627.484 375.852V367.168C627.484 365.885 627.449 364.828 627.38 363.996C627.345 363.129 627.207 362.471 626.964 362.02C626.721 361.535 626.375 361.205 625.924 361.032C625.473 360.824 624.849 360.72 624.052 360.72V359.42C624.919 359.42 625.664 359.368 626.288 359.264C626.947 359.16 627.536 359.004 628.056 358.796C628.576 358.588 629.044 358.345 629.46 358.068C629.911 357.791 630.379 357.496 630.864 357.184H632.164V362.592C632.996 360.547 633.984 359.056 635.128 358.12C636.307 357.149 637.503 356.664 638.716 356.664C639.479 356.664 640.172 356.785 640.796 357.028C641.42 357.271 641.732 357.687 641.732 358.276C642.425 358.276 642.963 358.501 643.344 358.952C643.76 359.403 643.968 360.027 643.968 360.824C643.968 361.725 643.656 362.523 643.032 363.216C642.408 363.875 641.368 364.343 639.912 364.62C640.051 364.1 640.12 363.58 640.12 363.06C640.12 361.812 639.825 360.893 639.236 360.304C638.681 359.715 638.057 359.42 637.364 359.42C636.809 359.42 636.22 359.715 635.596 360.304C635.007 360.859 634.452 361.639 633.932 362.644C633.412 363.649 632.979 364.828 632.632 366.18C632.32 367.497 632.164 368.936 632.164 370.496V375.852ZM658.414 375.852C658.414 376.545 658.518 377.117 658.726 377.568C658.969 378.019 659.246 378.383 659.558 378.66C659.905 378.937 660.286 379.145 660.702 379.284C661.153 379.388 661.586 379.44 662.002 379.44V381C661.586 381 661.118 380.983 660.598 380.948C660.113 380.879 659.593 380.809 659.038 380.74C658.483 380.671 657.946 380.619 657.426 380.584C656.941 380.515 656.49 380.48 656.074 380.48C655.658 380.48 655.19 380.515 654.67 380.584C654.185 380.619 653.665 380.671 653.11 380.74C652.555 380.809 652.018 380.879 651.498 380.948C651.013 380.983 650.562 381 650.146 381V379.44C651.082 379.44 651.914 379.18 652.642 378.66C653.37 378.14 653.734 377.204 653.734 375.852V366.908C653.734 365.625 653.699 364.568 653.63 363.736C653.595 362.869 653.457 362.211 653.214 361.76C652.971 361.275 652.625 360.945 652.174 360.772C651.723 360.564 651.099 360.46 650.302 360.46V358.9C651.169 358.9 651.897 358.848 652.486 358.744C653.11 358.64 653.665 358.484 654.15 358.276C654.635 358.068 655.086 357.825 655.502 357.548C655.918 357.271 656.369 356.976 656.854 356.664H658.414V375.852ZM658.882 343.924C659.055 343.716 659.263 343.56 659.506 343.456C659.783 343.352 660.061 343.3 660.338 343.3C660.685 343.3 660.997 343.421 661.274 343.664C661.586 343.872 661.742 344.184 661.742 344.6C661.742 345.155 661.569 345.605 661.222 345.952C661.395 346.16 661.482 346.42 661.482 346.732C661.482 347.113 661.361 347.477 661.118 347.824C660.945 348.067 660.702 348.292 660.39 348.5C660.078 348.708 659.679 348.968 659.194 349.28C658.709 349.592 658.119 349.973 657.426 350.424C656.767 350.875 656.005 351.481 655.138 352.244C654.861 352.487 654.531 352.608 654.15 352.608C653.873 352.608 653.595 352.504 653.318 352.296C653.006 352.053 652.85 351.707 652.85 351.256C652.85 350.979 652.954 350.701 653.162 350.424C653.959 349.488 654.583 348.621 655.034 347.824C655.485 347.027 655.866 346.333 656.178 345.744C656.525 345.12 656.854 344.652 657.166 344.34C657.478 343.993 657.894 343.82 658.414 343.82C658.622 343.82 658.778 343.855 658.882 343.924ZM689.416 375.852C689.416 376.545 689.52 377.117 689.728 377.568C689.971 378.019 690.248 378.383 690.56 378.66C690.907 378.937 691.288 379.145 691.704 379.284C692.155 379.388 692.588 379.44 693.004 379.44V381C692.207 381 691.514 380.931 690.924 380.792C690.37 380.653 689.694 380.584 688.896 380.584C688.099 380.584 687.406 380.601 686.816 380.636C686.227 380.671 685.534 380.792 684.736 381V378.244C683.939 379.145 682.986 379.96 681.876 380.688C680.767 381.381 679.415 381.728 677.82 381.728C676.538 381.728 675.359 381.555 674.284 381.208C673.244 380.861 672.343 380.359 671.58 379.7C670.852 379.041 670.28 378.261 669.864 377.36C669.448 376.424 669.24 375.384 669.24 374.24C669.24 373.131 669.448 372.143 669.864 371.276C670.315 370.375 670.939 369.629 671.736 369.04C672.534 368.416 673.47 367.948 674.544 367.636C675.619 367.289 676.815 367.116 678.132 367.116C679.623 367.116 680.888 367.272 681.928 367.584C683.003 367.861 683.939 368.191 684.736 368.572V366.648C684.736 365.747 684.667 364.845 684.528 363.944C684.424 363.043 684.199 362.228 683.852 361.5C683.506 360.772 683.003 360.183 682.344 359.732C681.686 359.281 680.836 359.056 679.796 359.056C679.346 359.056 678.843 359.108 678.288 359.212C677.768 359.316 677.283 359.507 676.832 359.784C676.382 360.027 676 360.373 675.688 360.824C675.376 361.24 675.22 361.777 675.22 362.436C675.22 362.783 675.272 363.181 675.376 363.632C674.856 363.909 674.284 364.048 673.66 364.048C672.69 364.048 671.979 363.788 671.528 363.268C671.078 362.713 670.852 362.089 670.852 361.396C670.852 360.703 671.078 360.096 671.528 359.576C672.014 359.021 672.69 358.744 673.556 358.744C673.556 358.363 673.73 358.033 674.076 357.756C674.423 357.479 674.874 357.271 675.428 357.132C676.018 356.959 676.659 356.837 677.352 356.768C678.046 356.699 678.756 356.664 679.484 356.664C681.044 356.664 682.431 356.855 683.644 357.236C684.892 357.583 685.932 358.207 686.764 359.108C687.631 359.975 688.29 361.153 688.74 362.644C689.191 364.1 689.416 365.955 689.416 368.208V375.852ZM679.276 379.336C680.49 379.336 681.547 378.989 682.448 378.296C683.35 377.568 684.112 376.701 684.736 375.696V370.496C683.939 370.115 683.055 369.803 682.084 369.56C681.114 369.283 680.143 369.144 679.172 369.144C677.786 369.144 676.59 369.56 675.584 370.392C674.614 371.224 674.128 372.403 674.128 373.928C674.128 375.523 674.596 376.823 675.532 377.828C676.468 378.833 677.716 379.336 679.276 379.336Z" fill="#F5F5F5"/>
<g clip-path="url(#clip1_2_7)">
<path d="M454.959 152.063L477.799 204.115L541.327 213.895L573.006 176.89L543.879 149.955L511.823 173.194L525.938 188.449L538.906 180.832L533.65 176.118L539.89 169.162L554.664 182.415L524.188 200.313L497.811 171.811L525.952 151.41L494.663 121.857L454.961 152.062L454.959 152.063Z" fill="#FF99CC"/>
<path d="M457.609 181.356L445.664 221.526L503.417 260.924L581.909 239.498L608.217 156.596L553.962 110.297L525.464 138.097L533.65 145.829L544.597 137.892L585.953 176.135L545.043 223.922L471.305 212.569L457.609 181.356L457.609 181.356Z" fill="#FF99CC"/>
<path d="M456.053 245.636C454.989 246.688 453.929 247.762 452.873 248.858C449.591 252.263 446.307 256.028 443.028 259.831C451.07 261.207 458.888 262.472 466.396 261.874C471.566 261.463 476.699 260.274 481.998 257.625L459.529 242.298C458.365 243.384 457.206 244.497 456.052 245.637L456.053 245.636Z" fill="#A1E992"/>
<path d="M494.972 266.475C491.787 273.386 490.054 280.762 489.355 288.744C488.337 300.365 489.69 313.313 492.129 327.315C513.165 308.117 525.274 289.637 531.835 262.853L501.716 271.075L494.972 266.474L494.972 266.475Z" fill="#A1E992"/>
<path d="M608.046 188.026L599.421 215.209C616.64 212.718 628.437 205.43 641.394 193.428C630.797 189.025 619.438 187.465 608.046 188.027L608.046 188.026Z" fill="#A1E992"/>
<path d="M542.653 256.88C540.951 265.477 538.75 273.37 536.002 280.744C539.966 284.447 543.962 286.715 547.824 287.639C550.723 311.391 551.466 334.92 549.967 358.216C543.321 364.004 534.512 360.14 530.455 351.322C528.799 365.759 534.605 376.988 547.559 382.568C546.992 386.833 546.358 391.09 545.637 395.34L561.668 379.308C563.627 363.13 564.53 346.875 564.408 330.54C578.083 323.365 582.984 310.896 579.136 296.035C576.688 304.176 570.088 309.061 563.535 306.907C563.038 299.584 562.334 292.244 561.425 284.888C564.416 282.752 567.137 279.579 569.447 275.43C559.959 272.209 550.88 266.286 542.654 256.879L542.653 256.88Z" fill="#A1E992"/>
<path d="M555.098 256.502C564.438 264.99 574.357 268.363 585.068 269.043C598.595 269.903 613.59 265.936 629.064 260.979C619.947 246.354 610.287 235.445 595.186 228.551L589.277 247.172L555.098 256.502V256.502Z" fill="#A1E992"/>
</g>
</g>
<defs>
<filter id="filter0_d_2_7" x="101.871" y="455.96" width="869.198" height="307.586" filterUnits="userSpaceOnUse" color-interpolation-filters="sRGB">
<feFlood flood-opacity="0" result="BackgroundImageFix"/>
<feColorMatrix in="SourceAlpha" type="matrix" values="0 0 0 0 0 0 0 0 0 0 0 0 0 0 0 0 0 0 127 0" result="hardAlpha"/>
<feOffset dx="6" dy="6"/>
<feGaussianBlur stdDeviation="3"/>
<feComposite in2="hardAlpha" operator="out"/>
<feColorMatrix type="matrix" values="0 0 0 0 0.2 0 0 0 0 0.2 0 0 0 0 0.2 0 0 0 0.1 0"/>
<feBlend mode="normal" in2="BackgroundImageFix" result="effect1_dropShadow_2_7"/>
<feBlend mode="normal" in="SourceGraphic" in2="effect1_dropShadow_2_7" result="shape"/>
</filter>
<clipPath id="clip0_2_7">
<rect width="1058" height="805" fill="white"/>
</clipPath>
<clipPath id="clip1_2_7">
<rect x="348" y="244.019" width="256" height="256" rx="50" transform="rotate(-45 348 244.019)" fill="white"/>
</clipPath>
</defs>
</svg>
